<svg width="236" height="98" viewBox="0 0 236 98" fill="none" xmlns="http://www.w3.org/2000/svg">
<path d="M63 97.625L20 26.75C19.9583 26.75 19.9167 26.75 19.875 26.75V86.0625C19.875 88.3958 20.3958 89.7708 21.4375 90.1875C22.4792 90.6042 24.6042 90.8125 27.8125 90.8125H31.1875V97C28.9375 97 26.7917 96.9792 24.75 96.9375C22.7083 96.8958 20.1042 96.875 16.9375 96.875C13.5625 96.875 10.6042 96.8958 8.06251 96.9375C5.56252 96.9792 3.00002 97 0.375015 97V90.8125H4.37502C6.75001 90.8125 8.41668 90.6458 9.37501 90.3125C10.3333 89.9792 10.8958 89.4375 11.0625 88.6875C11.2708 87.9375 11.375 86.9375 11.375 85.6875V27.6875C11.375 25.1875 10.9583 23.7083 10.125 23.25C9.33335 22.7917 7.47918 22.5625 4.56251 22.5625H0.687515C0.687515 22.1875 0.687515 21.7292 0.687515 21.1875C0.687515 20.6458 0.687515 20.0833 0.687515 19.5C0.729182 18.875 0.750015 18.2917 0.750015 17.75C0.750015 17.2083 0.750015 16.75 0.750015 16.375C0.750015 16.375 1.27085 16.375 2.31252 16.375C3.35418 16.375 4.58335 16.375 6.00001 16.375C7.45835 16.375 8.81251 16.3958 10.0625 16.4375C11.3542 16.4375 12.2083 16.4375 12.625 16.4375C13.4583 16.4375 14.3958 16.4375 15.4375 16.4375C16.4792 16.4375 17.5625 16.4375 18.6875 16.4375C19.8125 16.3958 20.8958 16.375 21.9375 16.375C23.0208 16.375 24 16.375 24.875 16.375C24.875 16.375 25.625 17.625 27.125 20.125C28.625 22.625 30.625 25.9167 33.125 30C35.625 34.0833 38.3542 38.5833 41.3125 43.5C44.2708 48.4167 47.2292 53.3333 50.1875 58.25C53.1458 63.125 55.875 67.6042 58.375 71.6875C60.875 75.7708 62.875 79.0625 64.375 81.5625C65.875 84.0625 66.625 85.3125 66.625 85.3125V27.0625C66.5833 24.8958 66.0417 23.6042 65 23.1875C63.9583 22.7708 61.875 22.5625 58.75 22.5625H55.5V16.375C58.7917 16.375 61.5625 16.4167 63.8125 16.5C66.0625 16.5417 68.1042 16.5625 69.9375 16.5625C70.3958 16.5625 71.4375 16.5625 73.0625 16.5625C74.7292 16.5208 76.5417 16.5 78.5 16.5C80.4583 16.4583 82.1458 16.4375 83.5625 16.4375C84.9792 16.3958 85.6875 16.375 85.6875 16.375V22.5625H81.75C78.4583 22.5625 76.5208 22.9375 75.9375 23.6875C75.3958 24.3958 75.125 25.4792 75.125 26.9375C75.125 26.8958 75.125 28.1458 75.125 30.6875C75.125 33.2292 75.125 36.6042 75.125 40.8125C75.125 45.0208 75.125 49.6458 75.125 54.6875C75.125 59.6875 75.125 64.7083 75.125 69.75C75.125 74.7917 75.125 79.4167 75.125 83.625C75.125 87.8333 75.125 91.2292 75.125 93.8125C75.125 96.3542 75.125 97.625 75.125 97.625H63Z" fill="#F6F2F7"/>
<path d="M138 16.375C139.458 16.375 140.813 16.3958 142.062 16.4375H150.688C151.812 16.3958 152.896 16.375 153.938 16.375H156.875L159.125 20.125C160.625 22.625 162.625 25.9167 165.125 30C167.625 34.0833 170.354 38.5833 173.312 43.5L182.188 58.25C185.146 63.125 187.875 67.6042 190.375 71.6875C192.875 75.7708 194.875 79.0625 196.375 81.5625L198.625 85.3125V42.1982L207.125 48.708V97.625H195L152 26.75H151.875V86.0625C151.875 88.3958 152.396 89.7708 153.438 90.1875C154.479 90.6042 156.604 90.8125 159.812 90.8125H163.188V97C160.938 97 158.792 96.9792 156.75 96.9375C154.708 96.8958 152.104 96.875 148.938 96.875C145.563 96.875 142.604 96.8958 140.062 96.9375C137.563 96.9792 135 97 132.375 97V90.8125H136.375C138.75 90.8125 140.417 90.6458 141.375 90.3125C142.333 89.9792 142.896 89.4375 143.062 88.6875C143.271 87.9375 143.375 86.9375 143.375 85.6875V27.6875C143.375 25.1875 142.958 23.7083 142.125 23.25C141.333 22.7917 139.479 22.5625 136.562 22.5625H132.688V19.5C132.729 18.875 132.75 18.2917 132.75 17.75V16.375H138Z" fill="#F6F2F7"/>
<path d="M197.909 30.6V24.78H217.949V30.6H197.909ZM204.989 37.98V17.34H210.749V37.98H204.989Z" fill="#FF45C7"/>
<path d="M215.3 13.6V7.78H235.34V13.6H215.3ZM222.38 20.98V0.339996H228.14V20.98H222.38Z" fill="#45DDFF"/>
<path d="M102.626 41.0215C103.273 39.2871 105.727 39.2872 106.374 41.0215L126.442 94.8008C126.93 96.1078 125.963 97.5 124.568 97.5H110.37L110.421 92.5H120.247L104.5 50.3008L88.7528 92.5H97.5683L97.5185 97.5H84.4316L84.3017 97.4961C82.9773 97.4131 82.0851 96.0669 82.5575 94.8008L102.626 41.0215Z" fill="#F6F2F7"/>
</svg>
